# xmcd
#
# Track frame offsets:
# 183
# 18613
# 36013
# 53018
# 69828
# 85488
# 105878
# 120828
# 138728
# 150190
# 166080
# 179095
# 198065
# 211508
#
# Disc length: 2979 seconds
#
#
# Revision: 1
# Processed by: cddbd v1.5.1PL0 Copyright (c) Steve Scherf et al.
# Submitted via: FreeRIP 2.942 
#
DISCID=a30ba10e
DTITLE=Various Artist - Soul Girls
DYEAR=1988
DGENRE=Soul
TTITLE0=Aretha Franklin - Another Night
TTITLE1=Gwen Guthrie - (They Long To Be) Close To You
TTITLE2=The Three Degrees - My Simple Heart
TTITLE3=The Emotions - Best Of My Love
TTITLE4=Stephanie Mills - Never Knew Love Like This Before
TTITLE5=Esther Phillips - What A Diff'rence A Day Makes
TTITLE6=<<Compalition Disc>> - I Will Survive
TTITLE7=Gladys Knight - Midnight Train To Georgia
TTITLE8=Millie Jackson - My Man, A Sweet Man
TTITLE9=Dionne Warwick - I'll Never Love This Way Again
TTITLE10=Jennifer Warnes - Right Time Of The Night
TTITLE11=Deniece Williams - It's Gonna Take A Miracle
TTITLE12=Yvonne Elliman - If I Can't Have You.
TTITLE13=The Three Degrees - When Will I See You Again
EXTD=Input by Bill (whall@netcomuk.co.uk)
EXTT0=
EXTT1=
EXTT2=
EXTT3=
EXTT4=
EXTT5=
EXTT6=
EXTT7=
EXTT8=
EXTT9=
EXTT10=
EXTT11=
EXTT12=
EXTT13=
PLAYORDER=
